# xmcd
#
# Track frame offsets:
#	150
#	9632
#	22460
#	33610
#	45592
#	58270
#	68950
#	83797
#	93800
#	103265
#	113212
#	124605
#	136282
#	146512
#
# Disc length: 2111
#
# Revision: 1
# Processed by: cddbd v1.5.1PL0 Copyright (c) Steve Scherf et al.
# Submitted via: dBpowerAMP V4.0
# Normalized: r0:TDELIM( - )
#
DISCID=c8083d0e
DTITLE=Various Artist - Studio B Home Of A Thousand Hits
DYEAR=1900
DGENRE=Country
TTITLE0=Roy Orbison - Almost Eighteen
TTITLE1=Bobby Bare - Detroit City
TTITLE2=Floyd Cramer - Last Date
TTITLE3=Skeeter Davis - The End of the World
TTITLE4=Hank Snow - I've Been Everywhere
TTITLE5=Jim Reeves - He'll Have To Go
TTITLE6=Elvis Presley - It's Now Or Never
TTITLE7=George Hamilton IV - Abilene
TTITLE8=Norma Jean - Heaven Help The Working Girl
TTITLE9=Eddy Arnold - What's He Doing in My World
TTITLE10=Porter Wagoner and Dolly Parton - Holding on to Nothin'
TTITLE11=Dottie West - Here Comes My Baby
TTITLE12=Charley Pride - Is Anybody Goin' to San Antone
TTITLE13=Homer and Jethro - The Battle of Kookamonga
EXTD=
EXTT0=
EXTT1=
EXTT2=
EXTT3=
EXTT4=
EXTT5=
EXTT6=
EXTT7=
EXTT8=
EXTT9=
EXTT10=
EXTT11=
EXTT12=
EXTT13=
PLAYORDER=
